<svg xmlns="http://www.w3.org/2000/svg" viewBox="0 0 32 32" fill="none">
  <circle cx="16" cy="16" r="15" fill="#059669" stroke="#064E3B" stroke-width="1"/>
  <path d="M16 6C10.477 6 6 10.477 6 16s4.477 10 10 10 10-4.477 10-10S21.523 6 16 6z" fill="#10B981" opacity="0.3"/>
  <path d="M16 8a8 8 0 100 16 8 8 0 000-16zm0 2.5c1.5 0 2.8.6 3.8 1.5L16 16V10.5z" fill="#FFFFFF"/>
  <path d="M13 20.5c-1-.7-1.7-1.7-2.1-2.8L16 16l-3 4.5z" fill="#ECFDF5"/>
  <circle cx="16" cy="16" r="2" fill="#064E3B"/>
</svg>
